<mxfile host="Electron" modified="2024-08-24T16:34:43.552Z" agent="Mozilla/5.0 (Windows NT 10.0; Win64; x64) AppleWebKit/537.36 (KHTML, like Gecko) draw.io/24.6.4 Chrome/124.0.6367.207 Electron/30.0.6 Safari/537.36" etag="53PlrRlo-gQkiUoohMM1" version="24.6.4" type="device">
  <diagram name="Page-1" id="opur8khhgxofNLID9Gen">
    <mxGraphModel dx="1381" dy="613" grid="1" gridSize="10" guides="1" tooltips="1" connect="1" arrows="1" fold="1" page="1" pageScale="1" pageWidth="1100" pageHeight="850" math="0" shadow="0">
      <root>
        <mxCell id="0" />
        <mxCell id="1" parent="0" />
        <mxCell id="TFfD7H6dC6oHA5ymxJtN-17" style="edgeStyle=orthogonalEdgeStyle;rounded=0;orthogonalLoop=1;jettySize=auto;html=1;exitX=0.25;exitY=1;exitDx=0;exitDy=0;entryX=1;entryY=0;entryDx=0;entryDy=0;curved=1;dashed=1;" edge="1" parent="1" source="TFfD7H6dC6oHA5ymxJtN-18" target="TFfD7H6dC6oHA5ymxJtN-2">
          <mxGeometry relative="1" as="geometry" />
        </mxCell>
        <mxCell id="TFfD7H6dC6oHA5ymxJtN-20" style="edgeStyle=orthogonalEdgeStyle;rounded=0;orthogonalLoop=1;jettySize=auto;html=1;exitX=0.5;exitY=1;exitDx=0;exitDy=0;entryX=0.5;entryY=0;entryDx=0;entryDy=0;" edge="1" parent="1" source="TFfD7H6dC6oHA5ymxJtN-21" target="TFfD7H6dC6oHA5ymxJtN-3">
          <mxGeometry relative="1" as="geometry" />
        </mxCell>
        <mxCell id="TFfD7H6dC6oHA5ymxJtN-26" style="edgeStyle=orthogonalEdgeStyle;rounded=0;orthogonalLoop=1;jettySize=auto;html=1;exitX=0.75;exitY=1;exitDx=0;exitDy=0;entryX=0;entryY=0;entryDx=0;entryDy=0;curved=1;dashed=1;" edge="1" parent="1" source="TFfD7H6dC6oHA5ymxJtN-27" target="TFfD7H6dC6oHA5ymxJtN-4">
          <mxGeometry relative="1" as="geometry" />
        </mxCell>
        <mxCell id="TFfD7H6dC6oHA5ymxJtN-1" value="LLM" style="rounded=0;whiteSpace=wrap;html=1;" vertex="1" parent="1">
          <mxGeometry x="230" y="290" width="120" height="60" as="geometry" />
        </mxCell>
        <mxCell id="TFfD7H6dC6oHA5ymxJtN-13" style="edgeStyle=orthogonalEdgeStyle;rounded=0;orthogonalLoop=1;jettySize=auto;html=1;exitX=1;exitY=0.5;exitDx=0;exitDy=0;entryX=0;entryY=0.5;entryDx=0;entryDy=0;curved=1;" edge="1" parent="1" source="TFfD7H6dC6oHA5ymxJtN-14" target="TFfD7H6dC6oHA5ymxJtN-1">
          <mxGeometry relative="1" as="geometry" />
        </mxCell>
        <mxCell id="TFfD7H6dC6oHA5ymxJtN-2" value="" style="ellipse;whiteSpace=wrap;html=1;" vertex="1" parent="1">
          <mxGeometry x="60" y="490" width="120" height="80" as="geometry" />
        </mxCell>
        <mxCell id="TFfD7H6dC6oHA5ymxJtN-30" style="edgeStyle=orthogonalEdgeStyle;rounded=0;orthogonalLoop=1;jettySize=auto;html=1;exitX=0.5;exitY=1;exitDx=0;exitDy=0;entryX=0.5;entryY=0;entryDx=0;entryDy=0;" edge="1" parent="1" source="TFfD7H6dC6oHA5ymxJtN-3" target="TFfD7H6dC6oHA5ymxJtN-29">
          <mxGeometry relative="1" as="geometry" />
        </mxCell>
        <mxCell id="TFfD7H6dC6oHA5ymxJtN-3" value="" style="ellipse;whiteSpace=wrap;html=1;" vertex="1" parent="1">
          <mxGeometry x="230" y="610" width="120" height="80" as="geometry" />
        </mxCell>
        <mxCell id="TFfD7H6dC6oHA5ymxJtN-23" style="edgeStyle=orthogonalEdgeStyle;rounded=0;orthogonalLoop=1;jettySize=auto;html=1;exitX=0.5;exitY=0;exitDx=0;exitDy=0;entryX=1;entryY=0.75;entryDx=0;entryDy=0;curved=1;" edge="1" parent="1" source="TFfD7H6dC6oHA5ymxJtN-24" target="TFfD7H6dC6oHA5ymxJtN-1">
          <mxGeometry relative="1" as="geometry" />
        </mxCell>
        <mxCell id="TFfD7H6dC6oHA5ymxJtN-4" value="" style="ellipse;whiteSpace=wrap;html=1;" vertex="1" parent="1">
          <mxGeometry x="430" y="490" width="120" height="80" as="geometry" />
        </mxCell>
        <mxCell id="TFfD7H6dC6oHA5ymxJtN-6" style="edgeStyle=orthogonalEdgeStyle;rounded=0;orthogonalLoop=1;jettySize=auto;html=1;exitX=0.5;exitY=1;exitDx=0;exitDy=0;entryX=0.5;entryY=0;entryDx=0;entryDy=0;" edge="1" parent="1" source="TFfD7H6dC6oHA5ymxJtN-5" target="TFfD7H6dC6oHA5ymxJtN-1">
          <mxGeometry relative="1" as="geometry" />
        </mxCell>
        <mxCell id="TFfD7H6dC6oHA5ymxJtN-5" value="input" style="text;html=1;align=center;verticalAlign=middle;whiteSpace=wrap;rounded=0;" vertex="1" parent="1">
          <mxGeometry x="260" y="180" width="60" height="30" as="geometry" />
        </mxCell>
        <mxCell id="TFfD7H6dC6oHA5ymxJtN-9" style="rounded=0;orthogonalLoop=1;jettySize=auto;html=1;exitX=0;exitY=0.5;exitDx=0;exitDy=0;entryX=1;entryY=0.5;entryDx=0;entryDy=0;dashed=1;endArrow=none;endFill=0;" edge="1" parent="1" source="TFfD7H6dC6oHA5ymxJtN-8" target="TFfD7H6dC6oHA5ymxJtN-1">
          <mxGeometry relative="1" as="geometry" />
        </mxCell>
        <mxCell id="TFfD7H6dC6oHA5ymxJtN-8" value="LLM generates thought followed by action, or skips through-step" style="text;html=1;align=left;verticalAlign=middle;whiteSpace=wrap;rounded=0;" vertex="1" parent="1">
          <mxGeometry x="440" y="210" width="170" height="60" as="geometry" />
        </mxCell>
        <mxCell id="TFfD7H6dC6oHA5ymxJtN-10" value="tool A" style="text;html=1;align=center;verticalAlign=middle;whiteSpace=wrap;rounded=0;" vertex="1" parent="1">
          <mxGeometry x="-10" y="515" width="60" height="30" as="geometry" />
        </mxCell>
        <mxCell id="TFfD7H6dC6oHA5ymxJtN-11" value="final answer" style="text;html=1;align=center;verticalAlign=middle;whiteSpace=wrap;rounded=0;" vertex="1" parent="1">
          <mxGeometry x="370" y="635" width="60" height="30" as="geometry" />
        </mxCell>
        <mxCell id="TFfD7H6dC6oHA5ymxJtN-12" value="tool B" style="text;html=1;align=center;verticalAlign=middle;whiteSpace=wrap;rounded=0;" vertex="1" parent="1">
          <mxGeometry x="570" y="515" width="60" height="30" as="geometry" />
        </mxCell>
        <mxCell id="TFfD7H6dC6oHA5ymxJtN-15" value="" style="edgeStyle=orthogonalEdgeStyle;rounded=0;orthogonalLoop=1;jettySize=auto;html=1;exitX=0.5;exitY=0;exitDx=0;exitDy=0;entryX=0;entryY=0.5;entryDx=0;entryDy=0;curved=1;endArrow=none;endFill=0;" edge="1" parent="1" source="TFfD7H6dC6oHA5ymxJtN-2" target="TFfD7H6dC6oHA5ymxJtN-14">
          <mxGeometry relative="1" as="geometry">
            <mxPoint x="120" y="490" as="sourcePoint" />
            <mxPoint x="230" y="320" as="targetPoint" />
          </mxGeometry>
        </mxCell>
        <mxCell id="TFfD7H6dC6oHA5ymxJtN-14" value="obs" style="text;html=1;align=center;verticalAlign=middle;whiteSpace=wrap;rounded=0;" vertex="1" parent="1">
          <mxGeometry x="90" y="330" width="60" height="30" as="geometry" />
        </mxCell>
        <mxCell id="TFfD7H6dC6oHA5ymxJtN-19" value="" style="edgeStyle=orthogonalEdgeStyle;rounded=0;orthogonalLoop=1;jettySize=auto;html=1;exitX=0.25;exitY=1;exitDx=0;exitDy=0;entryX=0.5;entryY=0;entryDx=0;entryDy=0;curved=1;endArrow=none;endFill=0;dashed=1;" edge="1" parent="1" source="TFfD7H6dC6oHA5ymxJtN-1" target="TFfD7H6dC6oHA5ymxJtN-18">
          <mxGeometry relative="1" as="geometry">
            <mxPoint x="260" y="350" as="sourcePoint" />
            <mxPoint x="162" y="502" as="targetPoint" />
          </mxGeometry>
        </mxCell>
        <mxCell id="TFfD7H6dC6oHA5ymxJtN-18" value="act" style="text;html=1;align=center;verticalAlign=middle;whiteSpace=wrap;rounded=0;" vertex="1" parent="1">
          <mxGeometry x="170" y="410" width="60" height="30" as="geometry" />
        </mxCell>
        <mxCell id="TFfD7H6dC6oHA5ymxJtN-22" value="" style="edgeStyle=orthogonalEdgeStyle;rounded=0;orthogonalLoop=1;jettySize=auto;html=1;exitX=0.5;exitY=1;exitDx=0;exitDy=0;entryX=0.5;entryY=0;entryDx=0;entryDy=0;endArrow=none;endFill=0;" edge="1" parent="1" source="TFfD7H6dC6oHA5ymxJtN-1" target="TFfD7H6dC6oHA5ymxJtN-21">
          <mxGeometry relative="1" as="geometry">
            <mxPoint x="290" y="350" as="sourcePoint" />
            <mxPoint x="290" y="610" as="targetPoint" />
          </mxGeometry>
        </mxCell>
        <mxCell id="TFfD7H6dC6oHA5ymxJtN-21" value="act" style="text;html=1;align=center;verticalAlign=middle;whiteSpace=wrap;rounded=0;" vertex="1" parent="1">
          <mxGeometry x="270" y="460" width="60" height="30" as="geometry" />
        </mxCell>
        <mxCell id="TFfD7H6dC6oHA5ymxJtN-25" value="" style="edgeStyle=orthogonalEdgeStyle;rounded=0;orthogonalLoop=1;jettySize=auto;html=1;exitX=0.5;exitY=0;exitDx=0;exitDy=0;entryX=0.5;entryY=1;entryDx=0;entryDy=0;curved=1;endArrow=none;endFill=0;" edge="1" parent="1" source="TFfD7H6dC6oHA5ymxJtN-4" target="TFfD7H6dC6oHA5ymxJtN-24">
          <mxGeometry relative="1" as="geometry">
            <mxPoint x="490" y="490" as="sourcePoint" />
            <mxPoint x="350" y="335" as="targetPoint" />
          </mxGeometry>
        </mxCell>
        <mxCell id="TFfD7H6dC6oHA5ymxJtN-24" value="obs" style="text;html=1;align=center;verticalAlign=middle;whiteSpace=wrap;rounded=0;" vertex="1" parent="1">
          <mxGeometry x="430" y="380" width="60" height="30" as="geometry" />
        </mxCell>
        <mxCell id="TFfD7H6dC6oHA5ymxJtN-28" value="" style="edgeStyle=orthogonalEdgeStyle;rounded=0;orthogonalLoop=1;jettySize=auto;html=1;exitX=0.75;exitY=1;exitDx=0;exitDy=0;entryX=0.5;entryY=0;entryDx=0;entryDy=0;curved=1;endArrow=none;endFill=0;dashed=1;" edge="1" parent="1" source="TFfD7H6dC6oHA5ymxJtN-1" target="TFfD7H6dC6oHA5ymxJtN-27">
          <mxGeometry relative="1" as="geometry">
            <mxPoint x="320" y="350" as="sourcePoint" />
            <mxPoint x="448" y="502" as="targetPoint" />
          </mxGeometry>
        </mxCell>
        <mxCell id="TFfD7H6dC6oHA5ymxJtN-27" value="act" style="text;html=1;align=center;verticalAlign=middle;whiteSpace=wrap;rounded=0;" vertex="1" parent="1">
          <mxGeometry x="360" y="410" width="60" height="30" as="geometry" />
        </mxCell>
        <mxCell id="TFfD7H6dC6oHA5ymxJtN-29" value="output" style="text;html=1;align=center;verticalAlign=middle;whiteSpace=wrap;rounded=0;" vertex="1" parent="1">
          <mxGeometry x="260" y="750" width="60" height="30" as="geometry" />
        </mxCell>
      </root>
    </mxGraphModel>
  </diagram>
</mxfile>
